# xmcd
#
# Track frame offsets:
# 150
# 20603
# 42276
# 58992
# 82691
# 106048
# 121842
# 131195
# 148105
#
# Disc length: 2088 seconds
#
#
# Revision: 0
# Processed by: cddbd v1.5.1PL2 Copyright (c) Steve Scherf et al.
# Submitted via: FreeRIP 2.941 
#
DISCID=76082609
DTITLE=Chris Hiatt - Is Not
DYEAR=2005
DGENRE=Blues
TTITLE0=Next to my women
TTITLE1=Won't you go away
TTITLE2=Aqua Grande
TTITLE3=Weigh me down
TTITLE4=I'm asking why
TTITLE5=You weren't there
TTITLE6=Outta the chute
TTITLE7=Difference between
TTITLE8=Song for Owen
EXTD=
EXTT0=
EXTT1=
EXTT2=
EXTT3=
EXTT4=
EXTT5=
EXTT6=
EXTT7=
EXTT8=
PLAYORDER=
